# xmcd
#
# Track frame offsets:
#	150
#	14255
#	27407
#	45270
#	62805
#	76165
#	92775
#	104380
#	115642
#	128272
#	143537
#	155505
#	166202
#	177830
#	187222
#	203715
#	220627
#	240230
#
# Disc length: 3391 seconds
# Revision: 0
# Processed by: cddbd v1.5.2PL0 Copyright (c) Steve Scherf et al.
# Submitted via: dBpowerAMP V12.0
#
DISCID=da0d3d12
DTITLE=Various Artist - Millenium Country [Cd 1]
DYEAR=1997
DGENRE=Country
TTITLE0=The Mavericks - Someone Should Tell Her
TTITLE1=The Kendalls - Thank God for the Radio
TTITLE2=Lee Greenwood - The Wind Beneath My Wings
TTITLE3=Reba McEntire - Forever Love
TTITLE4=Faron Young - It's Four in the Morning
TTITLE5=The Oak Ridge Boys - Elvira
TTITLE6=Freddy Fender - Before the Next Teardrop Falls
TTITLE7=Donna Fargo - Happiest Girl in the Whole USA
TTITLE8=Tommy Overstreet - Heaven Is My Woman's Love
TTITLE9=B. J. Thomas - (Hey Won't You Play) Another Somebody Done Somebody Wrong Song
TTITLE10=Loretta Lynn/Conway Twitty - After the Fire Is Gone
TTITLE11=Leroy Van Dike - Walk on by
TTITLE12=Jack Green - There Goes My Everything
TTITLE13=Burls Ives - A Little Bitty Tear
TTITLE14=Jimmie Davis - You Are My Sunshine
TTITLE15=Vince Gill - Don't Let Our Love Start Slippin' Away
TTITLE16=Lone Justice - Don't Toss Us Away
TTITLE17=Randy Travis - The Hole
EXTD=
EXTT0=
EXTT1=
EXTT2=
EXTT3=
EXTT4=
EXTT5=
EXTT6=
EXTT7=
EXTT8=
EXTT9=
EXTT10=
EXTT11=
EXTT12=
EXTT13=
EXTT14=
EXTT15=
EXTT16=
EXTT17=
PLAYORDER=
